<mxfile host="app.diagrams.net" modified="2020-06-12T11:59:18.064Z" agent="5.0 (Macintosh; Intel Mac OS X 10_15_4) AppleWebKit/537.36 (KHTML, like Gecko) Chrome/81.0.4044.138 Safari/537.36 OPR/68.0.3618.125" etag="vfnjVp2d7u5L5jKDCEGT" version="13.2.3" type="github">
  <diagram id="fIEsz-fqmP_6yR0TFn1L" name="Page-1">
    <mxGraphModel dx="1146" dy="770" grid="1" gridSize="10" guides="1" tooltips="1" connect="1" arrows="1" fold="1" page="1" pageScale="1" pageWidth="827" pageHeight="1169" math="0" shadow="0">
      <root>
        <mxCell id="0" />
        <mxCell id="1" parent="0" />
        <mxCell id="aQJBInlE8wIv1WfZj9-9-1" value="Testing if this would work&lt;br&gt;" style="whiteSpace=wrap;html=1;aspect=fixed;" vertex="1" parent="1">
          <mxGeometry x="370" y="560" width="80" height="80" as="geometry" />
        </mxCell>
      </root>
    </mxGraphModel>
  </diagram>
</mxfile>
